<svg xmlns="http://www.w3.org/2000/svg" viewBox="0 0 313.67 83.79"><defs><style>.cls-1,.cls-2{fill:none;stroke:#e1bf45;}.cls-1,.cls-2,.cls-3{stroke-miterlimit:10;}.cls-1{stroke-width:2px;}.cls-3{fill:#a4a39f;stroke:#a4a39f;stroke-width:0.25px;}</style></defs><title>hello</title><g id="Layer_1" data-name="Layer 1"><polygon class="cls-1" points="36.28 82.64 1 62.27 1 21.52 36.28 1.16 71.56 21.52 71.56 62.27 36.28 82.64"/><line class="cls-2" x1="60.73" y1="14.04" x2="23.43" y2="75.93"/><line class="cls-2" x1="1" y1="21.53" x2="71.57" y2="62.27"/><line class="cls-2" x1="9.7" y1="16.5" x2="71.57" y2="40.53"/><line class="cls-2" x1="51.95" y1="73.59" x2="36.28" y2="1.15"/><line class="cls-2" x1="312.58" y1="57.45" x2="313.32" y2="58.19"/><line class="cls-2" x1="1" y1="29.3" x2="44.11" y2="78.11"/><line class="cls-2" x1="71.57" y1="31.53" x2="1" y2="53.71"/><line class="cls-2" x1="29.59" y1="5.02" x2="17.26" y2="71.65"/><path class="cls-3" d="M39.41,40.87c-.82-3.17-2.16-6.29-6.68-6.29-3.74,0-5,2.74-5,5.24,0,3.31,2.12,5,6.1,7,5.76,3,8.26,5.19,8.26,9.75,0,5-4.37,8.88-10.56,8.88a20,20,0,0,1-7.35-1.59,64.71,64.71,0,0,1-1.29-7.2l1.48-.38c1,3.22,3.08,7.39,8.07,7.39A5.28,5.28,0,0,0,38,58.2c0-3.7-2-5.18-6.2-7.49-5-2.73-7.87-5-7.87-9.5,0-4.27,3.55-8.31,9.89-8.31a31,31,0,0,1,6.34.91c.19,1.73.38,3.65.76,6.77Z" transform="translate(-8.16 -7.73)"/><path class="cls-3" d="M63.41,40.87c-.82-3.17-2.16-6.29-6.68-6.29-3.74,0-5,2.74-5,5.24,0,3.31,2.12,5,6.1,7,5.76,3,8.26,5.19,8.26,9.75,0,5-4.37,8.88-10.56,8.88a20,20,0,0,1-7.35-1.59,64.71,64.71,0,0,1-1.29-7.2l1.48-.38c1,3.22,3.08,7.39,8.07,7.39A5.28,5.28,0,0,0,62,58.2c0-3.7-2-5.18-6.2-7.49-5-2.73-7.87-5-7.87-9.5,0-4.27,3.55-8.31,9.89-8.31a31,31,0,0,1,6.34.91c.19,1.73.38,3.65.76,6.77Z" transform="translate(-8.16 -7.73)"/></g></svg>